<svg width="1459" height="214" viewBox="0 0 1459 214" fill="none" xmlns="http://www.w3.org/2000/svg">
<path d="M0.195312 86.9141V60.8398H100.879V86.9141H0.195312ZM40.332 141.309H48.9258C50.0977 141.309 51.1393 141.732 52.0508 142.578L52.832 143.457C53.6784 144.303 54.1016 145.312 54.1016 146.484V162.305C54.1016 164.974 52.6367 166.862 49.707 167.969L30.6641 172.656C29.4922 172.917 28.2552 173.014 26.9531 172.949L19.9219 172.656C15.6901 172.396 12.0768 170.866 9.08203 168.066C6.15234 165.267 4.45964 161.751 4.00391 157.52L0.683594 112.988C0.683594 108.236 2.99479 105.306 7.61719 104.199L37.8906 99.8047C40.2995 99.4792 42.5781 99.9674 44.7266 101.27L70.6055 114.355V80.0781L100 78.8086V189.941L69.5312 191.211V132.812L48.5352 123.828C46.9076 122.982 45.2148 122.689 43.457 122.949L30.957 125.488C27.3112 126.27 25.1628 128.516 24.5117 132.227L24.3164 138.77C24.3164 141.439 24.4466 144.076 24.707 146.68L25.0977 150.781C25.7487 153.19 27.1159 154.395 29.1992 154.395H36.0352V145.605C36.0352 144.759 36.263 143.978 36.7188 143.262C37.6953 141.96 38.8997 141.309 40.332 141.309ZM105.469 60.8398H134.57V190.039H105.469V60.8398ZM175.391 190.039H142.969V52.832C142.969 44.8893 145.378 37.8581 150.195 31.7383C155.013 25.6185 161.328 21.5169 169.141 19.4336L247.852 0V31.25L181.543 45.5078C179.72 45.9635 178.223 46.9076 177.051 48.3398C175.944 49.7721 175.391 51.4323 175.391 53.3203V190.039ZM183.887 155.566C183.887 153.418 184.603 151.628 186.035 150.195C187.467 148.698 189.258 147.949 191.406 147.949H221.777C224.512 147.949 226.855 147.07 228.809 145.312C230.762 143.49 231.738 141.309 231.738 138.77V111.426C231.738 108.887 230.762 106.738 228.809 104.98C226.855 103.158 224.512 102.246 221.777 102.246H207.324C205.762 102.246 204.395 102.767 203.223 103.809C202.116 104.85 201.562 106.12 201.562 107.617V121.387H210.938V110.449C211.198 108.952 211.947 108.203 213.184 108.203H218.945C220.443 108.464 221.191 109.212 221.191 110.449V133.105V134.18C221.191 136.328 220.41 138.184 218.848 139.746C217.35 141.243 215.527 141.992 213.379 141.992H189.941C188.444 141.992 187.142 141.471 186.035 140.43C184.993 139.323 184.473 138.021 184.473 136.523V90.332H187.305H246.289C248.503 90.332 250.358 91.1133 251.855 92.6758C253.418 94.2383 254.199 96.1263 254.199 98.3398V144.922C254.199 148.763 252.767 152.279 249.902 155.469C247.038 158.594 243.457 161.1 239.16 162.988C234.928 164.811 230.729 165.723 226.562 165.723L260.547 180.273L241.895 201.172L184.082 176.074L183.887 155.566ZM182.617 86.9141H255.078V60.8398H182.617V86.9141ZM261.719 86.9141V60.7422H350.684V86.9141H261.719ZM264.941 162.012V86.7188H292.676V130.078H295.996L315.918 108.594H348.047V159.473L348.926 184.18V190.039H321.484V125.684L293.848 163.086H265.625C265.625 163.086 265.397 162.728 264.941 162.012ZM356.445 60.8398H385.547V190.039H356.445V60.8398ZM534.961 60.9375L567.383 61.4258V190.039H534.961V60.9375ZM440.43 87.0117V60.8398H567.969V87.0117H440.43ZM447.656 86.2305L462.793 85.4492L477.637 82.2266C477.637 82.2266 480.729 83.7891 486.914 86.9141C493.099 90.0391 499.544 93.4245 506.25 97.0703C515.951 102.734 521.289 111.296 522.266 122.754C522.396 125.749 522.461 127.799 522.461 128.906V135.547C522.461 140.299 521.647 147.266 520.02 156.445C519.108 161.654 516.992 166.146 513.672 169.922C510.417 173.633 506.348 176.107 501.465 177.344C498.47 178.125 495.378 178.516 492.188 178.516H462.793C456.999 178.516 451.953 176.335 447.656 171.973L446.777 170.898C443.652 167.318 442.09 163.346 442.09 158.984V137.988H469.727V150.879C469.727 153.874 471.419 156.087 474.805 157.52L475.781 157.812L480.371 157.715L482.129 157.129C484.668 156.283 486.686 154.883 488.184 152.93C489.681 150.977 490.43 148.763 490.43 146.289V117.871C490.43 114.876 489.453 112.24 487.5 109.961C485.612 107.682 483.171 106.12 480.176 105.273L458.789 101.562L447.656 86.2305ZM517.578 120.898L559.961 124.707L566.992 151.562L510.059 141.699L517.578 120.898ZM576.172 60.8398H605.273V190.039H576.172V60.8398ZM638.379 203.418L642.871 203.125C646.191 202.93 649.121 203.158 651.66 203.809C654.264 204.46 657.096 205.534 660.156 207.031L663.477 208.496L667.48 188.281L666.992 187.988C664.453 186.751 662.077 185.677 659.863 184.766C657.65 183.854 655.404 183.138 653.125 182.617C650.846 182.096 648.307 181.771 645.508 181.641L639.941 181.348L638.379 203.418ZM614.062 86.9141V60.8398H701.074V86.9141H614.062ZM672.461 68.9453L700.684 69.4336V189.844H672.461V186.328C672.461 184.635 671.908 183.171 670.801 181.934C669.694 180.632 668.294 179.818 666.602 179.492L620.312 171.777C617.708 170.801 616.406 169.173 616.406 166.895V112.207C616.406 110.189 617.415 108.659 619.434 107.617L672.461 89.6484V68.9453ZM671.484 154.297V125.977C671.484 125.977 671.452 125.879 671.387 125.684C671.387 125.488 671.289 125.26 671.094 125C670.898 124.74 670.573 124.544 670.117 124.414C669.727 124.219 669.108 124.154 668.262 124.219C667.48 124.219 666.439 124.382 665.137 124.707L640.332 130.664C638.509 131.706 637.728 133.268 637.988 135.352L639.062 142.09C639.714 143.783 640.82 145.052 642.383 145.898L669.629 154.785L671.484 154.297ZM807.422 134.18L784.961 141.992L783.105 140.137C777.832 135.71 775.26 130.208 775.391 123.633C775.456 121.615 776.27 119.954 777.832 118.652L778.516 118.066C780.859 118.066 782.585 117.546 783.691 116.504C784.798 115.462 785.482 114.095 785.742 112.402C786.068 110.645 786.23 108.691 786.23 106.543V86.3281C786.23 84.5703 786.003 83.1706 785.547 82.1289C785.156 81.0221 784.342 80.2409 783.105 79.7852C781.868 79.3294 780.078 79.1016 777.734 79.1016H771.875C770.508 79.1016 768.978 79.1341 767.285 79.1992C765.658 79.1992 764.225 79.6549 762.988 80.5664C761.816 81.4128 761.23 83.1055 761.23 85.6445V95.6055H770.215V87.8906C770.345 86.7839 770.866 86.2305 771.777 86.2305H777.246C778.092 86.2305 778.646 86.7188 778.906 87.6953L779.688 100.977C779.753 102.214 779.688 103.451 779.492 104.688L778.711 108.789C778.255 110.156 777.637 111.328 776.855 112.305C776.139 113.281 775.098 113.77 773.73 113.77H750.684C749.316 113.77 748.112 113.281 747.07 112.305C746.094 111.263 745.605 110.059 745.605 108.691V77.1484C745.605 74.1536 746.191 71.4518 747.363 69.043C748.6 66.569 750.488 64.6159 753.027 63.1836C755.632 61.6862 758.952 60.9375 762.988 60.9375H797.363C800.293 60.9375 802.734 61.1328 804.688 61.5234C806.641 61.849 808.203 62.4023 809.375 63.1836C810.612 63.9648 811.523 64.974 812.109 66.2109C812.695 67.3828 813.086 68.8151 813.281 70.5078C813.477 72.2005 813.574 74.1211 813.574 76.2695V101.27C813.574 105.306 813.086 108.333 812.109 110.352C811.198 112.305 810.059 113.737 808.691 114.648C807.389 115.495 806.087 116.211 804.785 116.797C803.483 117.318 802.441 118.034 801.66 118.945L807.422 134.18ZM801.465 117.48C804.85 117.48 807.552 118.066 809.57 119.238C811.589 120.345 813.118 121.712 814.16 123.34C815.202 124.902 815.885 126.53 816.211 128.223C816.536 129.85 816.699 131.152 816.699 132.129V157.715C816.699 162.598 816.309 166.699 815.527 170.02C814.811 173.275 813.444 175.879 811.426 177.832C809.408 179.785 806.51 181.185 802.734 182.031C799.023 182.812 794.141 183.203 788.086 183.203H740.82C733.854 183.333 728.743 182.031 725.488 179.297C722.298 176.562 720.117 172.331 718.945 166.602C717.773 160.872 716.797 153.516 716.016 144.531L711.133 97.9492L739.16 96.6797L742.578 128.418C743.034 133.626 743.555 138.021 744.141 141.602C744.727 145.182 745.996 147.852 747.949 149.609C749.902 151.367 753.158 152.083 757.715 151.758H770.605C779.329 151.758 785.807 151.009 790.039 149.512C794.271 147.949 796.387 145.312 796.387 141.602V139.844C796.387 136.979 795.28 135.547 793.066 135.547C790.918 135.482 788.216 137.63 784.961 141.992L801.465 117.48ZM921.777 75.7812V190.039H893.555V180.957C893.555 179.785 892.253 178.711 889.648 177.734C887.109 176.758 884.375 175.944 881.445 175.293C878.581 174.642 876.497 174.219 875.195 174.023L832.715 166.309C830.176 165.397 828.906 163.77 828.906 161.426V129.883C828.906 127.865 829.915 126.302 831.934 125.195L860.352 116.797L860.449 120.02C860.059 119.043 857.064 116.276 851.465 111.719C845.931 107.096 840.267 102.539 834.473 98.0469C828.743 93.5547 825.879 91.3086 825.879 91.3086V70.6055C835.254 70.8008 839.941 70.8984 839.941 70.8984H847.949L851.367 78.8086C851.367 78.8086 862.5 87.5977 884.766 105.176C884.831 106.283 884.635 110.384 884.18 117.48C883.724 124.577 883.496 128.125 883.496 128.125C882.129 128.581 877.734 130.664 870.312 134.375C862.956 138.021 859.277 139.844 859.277 139.844C858.431 140.495 858.04 141.634 858.105 143.262C858.171 144.889 858.594 145.996 859.375 146.582L879.004 153.809C882.65 154.915 886.361 155.404 890.137 155.273L892.578 155.078V90.5273V76.7578L921.777 75.7812ZM824.805 87.0117V60.8398H922.461V87.0117H824.805ZM854.395 201.465L858.887 201.172C862.207 200.977 865.137 201.204 867.676 201.855C870.28 202.507 873.112 203.581 876.172 205.078L879.492 206.543L883.496 186.328L883.008 186.035C880.469 184.798 878.092 183.724 875.879 182.812C873.665 181.901 871.419 181.185 869.141 180.664C866.862 180.143 864.323 179.818 861.523 179.688L855.957 179.395L854.395 201.465ZM930.664 60.8398H959.766V190.039H930.664V60.8398ZM992.871 203.418L997.363 203.125C1000.68 202.93 1003.61 203.158 1006.15 203.809C1008.76 204.46 1011.59 205.534 1014.65 207.031L1017.97 208.496L1021.97 188.281L1021.48 187.988C1018.95 186.751 1016.57 185.677 1014.36 184.766C1012.14 183.854 1009.9 183.138 1007.62 182.617C1005.34 182.096 1002.8 181.771 1000 181.641L994.434 181.348L992.871 203.418ZM968.555 86.9141V60.8398H1055.57V86.9141H968.555ZM1026.95 68.9453L1055.18 69.4336V189.844H1026.95V186.328C1026.95 184.635 1026.4 183.171 1025.29 181.934C1024.19 180.632 1022.79 179.818 1021.09 179.492L974.805 171.777C972.201 170.801 970.898 169.173 970.898 166.895V112.207C970.898 110.189 971.908 108.659 973.926 107.617L1026.95 89.6484V68.9453ZM1025.98 154.297V125.977C1025.98 125.977 1025.94 125.879 1025.88 125.684C1025.88 125.488 1025.78 125.26 1025.59 125C1025.39 124.74 1025.07 124.544 1024.61 124.414C1024.22 124.219 1023.6 124.154 1022.75 124.219C1021.97 124.219 1020.93 124.382 1019.63 124.707L994.824 130.664C993.001 131.706 992.22 133.268 992.48 135.352L993.555 142.09C994.206 143.783 995.312 145.052 996.875 145.898L1024.12 154.785L1025.98 154.297ZM1143.55 190.039H1111.13V52.832C1111.13 44.8893 1113.54 37.8581 1118.36 31.7383C1123.18 25.6185 1129.49 21.5169 1137.3 19.4336L1216.02 0V31.25L1149.71 45.5078C1147.88 45.9635 1146.39 46.9076 1145.21 48.3398C1144.11 49.7721 1143.55 51.4323 1143.55 53.3203V190.039ZM1150.98 86.9141V60.8398H1251.66V86.9141H1150.98ZM1191.11 141.309H1199.71C1200.88 141.309 1201.92 141.732 1202.83 142.578L1203.61 143.457C1204.46 144.303 1204.88 145.312 1204.88 146.484V162.305C1204.88 164.974 1203.42 166.862 1200.49 167.969L1181.45 172.656C1180.27 172.917 1179.04 173.014 1177.73 172.949L1170.7 172.656C1166.47 172.396 1162.86 170.866 1159.86 168.066C1156.93 165.267 1155.24 161.751 1154.79 157.52L1151.46 112.988C1151.46 108.236 1153.78 105.306 1158.4 104.199L1188.67 99.8047C1191.08 99.4792 1193.36 99.9674 1195.51 101.27L1221.39 114.355V80.0781L1250.78 78.8086V189.941L1220.31 191.211V132.812L1199.32 123.828C1197.69 122.982 1196 122.689 1194.24 122.949L1181.74 125.488C1178.09 126.27 1175.94 128.516 1175.29 132.227L1175.1 138.77C1175.1 141.439 1175.23 144.076 1175.49 146.68L1175.88 150.781C1176.53 153.19 1177.9 154.395 1179.98 154.395H1186.82V145.605C1186.82 144.759 1187.04 143.978 1187.5 143.262C1188.48 141.96 1189.68 141.309 1191.11 141.309ZM1337.99 138.086L1331.84 139.258C1329.1 139.714 1325.81 140.072 1321.97 140.332C1318.2 140.527 1314.26 140.495 1310.16 140.234C1306.05 139.974 1302.21 139.355 1298.63 138.379C1295.12 137.402 1292.22 136.003 1289.94 134.18C1287.73 132.292 1286.62 129.818 1286.62 126.758V103.027C1286.62 99.5768 1287.83 96.6797 1290.23 94.3359C1292.64 91.9271 1295.61 90.6901 1299.12 90.625L1340.82 90.918V98.7305L1323.14 100.977C1320.87 101.302 1318.98 102.311 1317.48 104.004C1315.98 105.697 1315.23 107.682 1315.23 109.961L1315.04 118.262C1315.3 121.712 1317.19 123.568 1320.7 123.828L1323.54 123.73C1325.03 123.535 1325.81 122.689 1325.88 121.191L1325.68 117.578L1332.81 110.547L1342.19 123.242L1337.99 138.086ZM1325.68 117.578L1325.78 106.934L1348.34 107.422C1350.23 107.422 1351.79 108.073 1353.03 109.375C1354.33 110.677 1354.98 112.24 1354.98 114.062V160.84C1354.98 167.09 1352.77 172.428 1348.34 176.855C1343.98 181.217 1338.67 183.398 1332.42 183.398H1281.64C1277.08 183.398 1273.14 181.901 1269.82 178.906C1266.5 175.911 1264.58 172.103 1264.06 167.48L1256.25 112.891L1280.37 111.523L1284.28 148.242C1284.54 150.521 1285.48 152.181 1287.11 153.223C1288.8 154.199 1290.85 154.818 1293.26 155.078C1295.74 155.273 1298.11 155.371 1300.39 155.371H1326.66C1329.46 155.371 1331.84 154.395 1333.79 152.441C1335.74 150.488 1336.72 148.112 1336.72 145.312V127.539C1336.72 124.805 1335.74 122.461 1333.79 120.508C1331.84 118.555 1329.46 117.578 1326.66 117.578H1325.68ZM1256.35 87.0117H1357.03V60.9375H1256.35V87.0117ZM1363.67 60.8398H1392.77V190.039H1363.67V60.8398Z" fill="black" style="fill:black;fill-opacity:1;"/>
</svg>
